<?xml version="1.0" standalone="no"?>
<!DOCTYPE svg PUBLIC "-//W3C//DTD SVG 1.1//EN" "http://www.w3.org/Graphics/SVG/1.1/DTD/svg11.dtd">
<svg width="25cm" height="20cm" viewBox="0 0 1000 800" preserveAspectRatio="none"
   xmlns="http://www.w3.org/2000/svg" version="1.1"
   xmlns:xlink="http://www.w3.org/1999/xlink">
    <title>Spider Chart</title>
    <desc>This is a basic example of a spider chart. The graph depicts
        a comparison of departemental budgeting and expenditure.
        https://upload.wikimedia.org/wikipedia/commons/0/00/Spider_Chart.svg </desc>

     <style type="text/css">
        <![CDATA[
        line.radial {
            stroke: #333;
            stroke-width: 2pt;
        }
        polygon {
            stroke-width: 3pt;
        }
        svg {
            fill: none;
            stroke: #777;
            stroke-opacity: 1;
            stroke-width: 1pt;
        }
        text {
            fill: #000;
            font-family: times, serif;
            font-size: 14pt;
            font-weight: normal;
            stroke: none;
            text-anchor: middle;
        }
        .cs1 { stroke: #37a; }
        .cs2 { stroke: #f73; }
        .cs3 { stroke: #7a3; }
        .cs4 { stroke: #a37; }
        #values text { font-size: 10pt; }
        ]]>
    </style>
    <defs>
        <g id="wedge" >
            <line class="radial" y2="305" />
        </g>
        <g id="warp" >
            <circle cx="0" cy="0" r="75" stroke="#ccc" fill="none" />
            <circle cx="0" cy="0" r="150" stroke="#ccc" fill="none" />
            <circle cx="0" cy="0" r="225" stroke="#ccc" fill="none" />
            <circle cx="0" cy="0" r="300" stroke="#ccc" fill="none" />
        </g>
        <g id="scores" >
            <polygon class="cs1"
              points="0,-180 -96.13,-55.5 -103.92,60 0,93 207.85,120 135.1,-78" />

            <polygon class="cs2"
                points="0,-267 -150.69,-87 -85.74,49.5 0,90 77.94,45 155.88,-90" />

           <polygon class="cs3"
                points="0.00,-75.00 194.86,-112.50 259.81,150.00 0.00,150.00 -155.88,90.00 -116.91,-67.50" />
        </g>
    </defs>



    <g transform="translate(400 400)">
        <use xlink:href="#wedge" />
        <use xlink:href="#wedge" transform="rotate(0)" />
        <use xlink:href="#wedge" transform="rotate(60)" />
        <use xlink:href="#wedge" transform="rotate(120)" />
        <use xlink:href="#wedge" transform="rotate(180)" />
        <use xlink:href="#wedge" transform="rotate(240)" />
        <use xlink:href="#wedge" transform="rotate(300)" />
        <use xlink:href="#warp" />
        <g id="labels">
            <text x="0" y="-320">Skill</text>
            <text x="-320" y="-170">Growing</text>
            <text x="-320" y="155">Compatibility</text>
            <text x="0" y="340">Productivity</text>
            <text x="310" y="-170">Learning</text>
            <text x="320" y="175">Management</text>
        </g>
        <g id="values" transform="translate(-17 4)">
            <text x="0" y="0">0</text>
            <text x="0" y="-75">25</text>
            <text x="0" y="-150">50</text>
            <text x="0" y="-225">75</text>
            <text x="0" y="-300">100</text>
        </g>

        <use xlink:href="#scores" />
    </g>

    <g transform="translate(750 380)">
        <line class="cs1" x1="40" y1="0"   y2="0"/><text x="60" y="5">1</text>
        <line class="cs2" x2="40" y1="50" y2="50"/><text x="60" y="55">2</text>
        <line class="cs3" x2="40" y1="100" y2="100"/><text x="60" y="105">3</text>
        <line class="cs4" x2="40" y1="150" y2="150"/><text x="60" y="155">4</text>
    </g>

</svg>
