<?xml version="1.0" ?><!DOCTYPE svg  PUBLIC '-//W3C//DTD SVG 1.1//EN'  'http://www.w3.org/Graphics/SVG/1.1/DTD/svg11.dtd'><svg enable-background="new 0 0 512 512" id="Layer_1" version="1.1" viewBox="0 0 512 512" xml:space="preserve" xmlns="http://www.w3.org/2000/svg" xmlns:xlink="http://www.w3.org/1999/xlink"><circle cx="256" cy="256" fill="#2529D8" id="ellipse" r="256"/><g id="logo"><path d="M319.8,92.7c-19.5-5-40.8,12.4-47.5,38.8c-6.7,26.4,3.6,51.9,23.2,56.9c19.5,5,40.8-12.4,47.5-38.8   C351.7,115.1,324.5,93.8,319.8,92.7z" fill="#FFFFFF"/><ellipse cx="216.8" cy="134.9" fill="#FFFFFF" rx="35.4" ry="48.9"/><path d="M365.6,181.7c-20.5,0.3-36.8,19.8-36.4,50.1c0.4,30.3,17.4,44,38,43.7c20.5-0.3,36.8-14.6,36.4-44.8   C403,191.3,370.5,181.7,365.6,181.7z" fill="#FFFFFF"/><ellipse cx="145" cy="208" fill="#FFFFFF" rx="49.4" ry="36.5" transform="matrix(-6.979727e-002 -0.9976 0.9976 -6.979727e-002 -52.3491 367.1529)"/><path d="M346.8,295.3c-17.6-15.5-32.5-28-55.8-60.5c-11.6-16-24.9-18.1-38.8-18.1c-13.9,0-28.6,4.9-39.9,21.1   c-11.3,16.2-24.1,32-48.9,52.8c-24.8,20.7-35.4,35.1-35.4,56.2c0,21.1,12,56.2,46.3,56.2s50.8-7.5,77.9-7.5s45.2,10.5,79.4,10.5   s48.6-32.4,48.6-53.5S374.2,319.4,346.8,295.3z" fill="#FFFFFF"/></g></svg>