<?xml version="1.0" ?><svg id="Layer_1" style="enable-background:new 0 0 512 512;" version="1.1" viewBox="0 0 512 512" xml:space="preserve" xmlns="http://www.w3.org/2000/svg" xmlns:xlink="http://www.w3.org/1999/xlink"><style type="text/css">
	.st0{fill:#745EC5;}
	.st1{fill:#FFFFFF;}
</style><circle class="st0" cx="256" cy="256" r="250"/><g><path class="st1" d="M201.6,214.7c9.3,20.4,29.9,34.6,53.8,34.6c0.2,0,0.3,0,0.6,0c0.2,0,0.3,0,0.6,0c23.9,0,44.5-14.1,53.8-34.6   c13.2,22.5,46.9,28.3,48.9,24.6c1.3-2.3-9.7-6.2-14.6-19.1c-4.6-12,0-20.9,1.5-32.2c3.7-28.1-16.7-55.1-33.9-56.9   c-9.7-1-17.2,4.7-22.3,10.3c-9.5-6.6-21-10.3-33.3-10.3c-0.2,0-0.3,0-0.6,0s-0.3,0-0.6,0c-12.4,0-23.9,3.8-33.3,10.3   c-4.9-5.6-12.6-11.4-22.3-10.3c-17.2,1.8-37.6,28.9-33.9,56.9c1.5,11.3,6.1,20.2,1.5,32.2c-4.9,12.9-15.9,16.8-14.6,19.1   C154.8,243.1,188.4,237.3,201.6,214.7z"/><path class="st1" d="M300.5,278.1h-89c-32.3,0-58.4,26.1-58.4,58.4V381h205.8v-44.5C358.9,304.2,332.7,278.1,300.5,278.1z"/></g></svg>