<?xml version="1.0" ?><!DOCTYPE svg  PUBLIC '-//W3C//DTD SVG 1.1//EN'  'http://www.w3.org/Graphics/SVG/1.1/DTD/svg11.dtd'><svg height="512px" style="enable-background:new 0 0 512 512;" version="1.1" viewBox="0 0 512 512" width="512px" xml:space="preserve" xmlns="http://www.w3.org/2000/svg" xmlns:xlink="http://www.w3.org/1999/xlink"><g id="形状_1_7_" style="enable-background:new    ;"><g id="形状_1"><g><path d="M426.204,367.404c-10.842-22.444-38.108-34.774-65.94-15.49     c-25.296,17.484-48.21,37.054-84.58,51.705c-69.234,28.904-158.221,28.763-228.957-57.157c-0.445,0.472-1.771,1.05-1.111,2.657     c15.95,38.997,60.328,103.976,148.088,128.143c34.626,9.537,80.468,15.269,137.748-4.333     c17.919-6.128,37.724-16.314,53.347-27.439c19.992-14.249,32.525-28.698,36.515-33.063     C429.088,403.885,434.873,385.363,426.204,367.404z" style="fill-rule:evenodd;clip-rule:evenodd;fill:#E43E29;"/></g></g></g><g id="形状_1_6_" style="enable-background:new    ;"><g id="形状_1_1_"><g><path d="M479.214,199.653     c-8.934-34.802-26.667-77.804-72.151-117.786c-14.214-12.472-32.398-23.836-49.815-31.87     c-18.542-8.586-36.097-13.43-45.799-14.613c-11.909-1.462-28.012-0.766-42.431,17.471     c-14.208,17.982-10.214,50.655,20.495,64.653c28.015,12.791,55.22,22.483,85.986,46.805     c59.459,45.749,103.536,119.405,65.368,224.971c0.645,0.162,1.323,0.479,2.452-0.861     C461.153,367.751,501.818,287.849,479.214,199.653z" style="fill-rule:evenodd;clip-rule:evenodd;fill:#2CB140;"/></g></g></g><g id="形状_1_5_" style="enable-background:new    ;"><g id="形状_1_2_"><g><path d="M287.111,29.296c-0.185-0.642,0.027-2.106-1.684-2.349     C247.778,21.332,165.251,24.198,98.86,86.5c-26.214,24.596-55.012,60.69-68.132,119.819c-4.093,18.455-5.734,40.674-4.393,59.831     c1.71,24.471,7.532,42.686,9.182,48.359c3.202,11.08,16.017,25.691,35.852,27.642c24.8,2.475,49.548-14.366,47.625-48.177     c-1.741-30.724-6.5-60.44-0.058-99.126C130.374,120.705,176.903,44.825,287.111,29.296z" style="fill-rule:evenodd;clip-rule:evenodd;fill:#FED900;"/></g></g></g><g id="形状_1_4_" style="enable-background:new    ;"><g id="形状_1_3_"><g><path d="M333.903,237.811c0.415-16.18-1.845-45.343-21.081-65.112     c-12.603-13.001-30.456-19.594-53.016-19.594c-0.206,0-0.412,0.001-0.618,0.001c-0.205,0-0.413-0.001-0.616-0.001     c-22.408-0.001-40.143,6.558-52.721,19.501c-19.189,19.788-21.48,49.216-21.047,65.663     c-12.423,15.261-21.809,49.442-19.499,55.706c0.642,1.77,2.013,2.171,2.557,2.263c1.205,0.183,2.388,0.276,3.55,0.276     c6.304,0,12.013-2.726,17.408-8.306c1.858,4.067,7.901,15.421,9.741,18.248c0.137,0.221,0.24,0.404,0.317,0.556     c-0.163,0.045-0.367,0.097-0.621,0.146c-3.569,0.67-8.76,3.507-12.299,8.329c-2.957,3.995-2.682,7.562-1.949,9.823     c1.465,4.576,6.136,8.361,13.117,10.588c9.814,3.168,18.747,4.271,26.442,4.271c14.533,0,24.652-3.936,27.958-5.339     c2.652-1.128,5.243-1.638,7.73-1.638c2.865,0,5.594,0.678,8.118,1.861c3.966,1.862,14.414,4.851,27.722,4.851     c8.409,0,17.958-1.193,27.741-4.614c6.375-2.226,10.644-5.77,11.984-9.917c0.948-2.988,0.369-6.076-1.68-8.913     c-3.622-5.112-7.611-7.969-13.261-9.477c2.577-3.935,8.786-16.339,9.604-18.288l0.013-0.028     c3.632,4.167,10.65,8.271,16.949,8.271c1.628,0,3.207-0.273,4.668-0.892c0.918-0.394,2.104-1.277,2.658-3.381     C356.258,283.359,343.772,251.276,333.903,237.811z" style="fill-rule:evenodd;clip-rule:evenodd;fill:#0099D6;"/></g></g></g></svg>